<?xml version="1.0" encoding="UTF-8" standalone="no"?>
<svg
   xmlns:dc="http://purl.org/dc/elements/1.1/"
   xmlns:cc="http://creativecommons.org/ns#"
   xmlns:rdf="http://www.w3.org/1999/02/22-rdf-syntax-ns#"
   xmlns:svg="http://www.w3.org/2000/svg"
   xmlns="http://www.w3.org/2000/svg"
   xmlns:sodipodi="http://sodipodi.sourceforge.net/DTD/sodipodi-0.dtd"
   xmlns:inkscape="http://www.inkscape.org/namespaces/inkscape"
   inkscape:version="1.0 (4035a4fb49, 2020-05-01)"
   sodipodi:docname="iconfinder_Take_exercise_4042280 (1).svg"
   xml:space="preserve"
   width="512px"
   viewBox="0 0 512 512"
   version="1.1"
   id="Take_x5F_exercise"
   height="512px"
   enable-background="new 0 0 512 512"><metadata
     id="metadata15"><rdf:RDF><cc:Work
         rdf:about=""><dc:format>image/svg+xml</dc:format><dc:type
           rdf:resource="http://purl.org/dc/dcmitype/StillImage" /></cc:Work></rdf:RDF></metadata><sodipodi:namedview
     inkscape:current-layer="Take_x5F_exercise"
     inkscape:window-maximized="1"
     inkscape:window-y="-11"
     inkscape:window-x="2869"
     inkscape:cy="256"
     inkscape:cx="249.65079"
     inkscape:zoom="1.96875"
     showgrid="false"
     id="namedview11"
     inkscape:window-height="2066"
     inkscape:window-width="3840"
     inkscape:pageshadow="2"
     inkscape:pageopacity="0"
     guidetolerance="10"
     gridtolerance="10"
     objecttolerance="10"
     borderopacity="1"
     bordercolor="#666666"
     pagecolor="#ffffff" /><g
     transform="matrix(0.7,0,0,0.7,76.8,76.8003)"
     id="g8"><g
       id="g6"><path
         id="path2"
         d="m 269.506,329.877 c 0,-49.125 -39.966,-89.091 -89.091,-89.091 v 10 c 43.611,0 79.091,35.479 79.091,79.091 z" /><path
         id="path4"
         d="m 26.241,326.526 h 81.591 v -95.081 h 40.897 v 39.425 c 0,25.222 10.573,49.567 29.008,66.795 19.394,18.123 30.517,43.186 30.517,68.761 v 49.02 h 10 v -49.02 c 0,-28.334 -12.279,-56.061 -33.688,-76.067 -16.419,-15.344 -25.836,-37.026 -25.836,-59.488 v -51.302 c 0,-13.647 11.103,-24.751 24.75,-24.751 h 60.826 c 2.521,0 4.573,2.052 4.573,4.573 0,12.592 -10.244,22.836 -22.836,22.836 h -45.215 v 10 h 45.215 c 8.919,0 17.014,-3.579 22.938,-9.37 4.767,4.283 11.001,6.755 17.69,6.755 8.859,0 16.713,-4.366 21.536,-11.054 4.82,6.688 12.67,11.054 21.524,11.054 10.951,0 20.372,-6.665 24.421,-16.148 h 9.35 v 97.123 c 0,9.082 -2.871,17.719 -8.301,24.971 -9.832,13.121 -15.029,28.297 -15.029,43.889 v 76 h 10 v -76 c 0,-13.412 4.506,-26.515 13.033,-37.894 6.736,-8.997 10.297,-19.706 10.297,-30.966 v -97.123 h 50.666 v 7.982 h -37.086 v 10 h 37.086 v 95.081 h 81.591 v -60.294 l 19.404,-23.864 V 140.713 L 485.759,116.849 V 56.555 h -81.591 v 113.063 h -67.899 v -26.332 c 0,-7.083 -2.762,-13.745 -7.771,-18.755 -5.002,-5.019 -11.666,-7.782 -18.766,-7.782 -6.306,0 -12.101,2.217 -16.658,5.907 -0.606,-6.082 -3.267,-11.714 -7.642,-16.073 -5.014,-5.015 -11.677,-7.776 -18.761,-7.776 -8.851,0 -16.697,4.363 -21.518,11.049 -0.832,-1.151 -1.757,-2.248 -2.782,-3.272 -5.015,-5.015 -11.673,-7.776 -18.748,-7.776 -13.718,0 -25.039,10.463 -26.399,23.829 -4.698,-3.813 -10.515,-5.887 -16.661,-5.887 -14.633,0 -26.537,11.904 -26.537,26.537 v 31.332 h 10 v -31.332 c 0,-9.118 7.418,-16.537 16.537,-16.537 4.422,0 8.571,1.72 11.689,4.848 3.118,3.117 4.834,7.269 4.834,11.689 h 10 v -17.943 c 0,-9.118 7.418,-16.536 16.537,-16.536 4.404,0 8.55,1.722 11.676,4.848 3.126,3.126 4.848,7.277 4.848,11.688 v 12.978 h 10 v -12.978 c 0,-9.118 7.413,-16.536 16.523,-16.536 4.413,0 8.563,1.721 11.695,4.854 3.122,3.111 4.842,7.261 4.842,11.683 v 17.943 h 10 c 0,-9.118 7.412,-16.537 16.523,-16.537 4.422,0 8.571,1.72 11.689,4.848 3.126,3.126 4.848,7.277 4.848,11.689 v 59.801 c 0,9.111 -7.419,16.524 -16.537,16.524 -9.111,0 -16.523,-7.413 -16.523,-16.524 v -39.61 h -10 v 39.61 c 0,9.111 -7.419,16.524 -16.537,16.524 -4.468,0 -8.61,-1.769 -11.648,-4.802 2.458,-4.601 3.856,-9.849 3.856,-15.419 0,-5.957 -3.598,-11.085 -8.731,-13.342 v -33.68 h -10 v 32.448 h -33.061 v -21.445 h -10 v 21.445 h -13.607 c -13.352,0 -24.961,7.573 -30.778,18.646 h -44.869 v -23.845 h 33.013 v -10 H 107.832 V 56.555 H 26.241 v 60.294 L 6.837,140.713 v 101.655 l 19.404,23.864 z m 468.922,-182.26 v 94.55 l -9.404,11.566 V 132.699 Z M 414.168,66.555 h 25.796 v 216.674 h 10 V 66.555 h 25.795 v 37.995 173.981 37.995 h -25.795 v -18.979 h -10 v 18.979 H 414.168 V 213.463 169.618 Z m -10,113.063 v 23.845 h -67.909 c 0.002,-0.126 0.01,-0.25 0.01,-0.376 v -23.469 z m -254.891,33.845 c -0.354,1.983 -0.548,4.021 -0.548,6.105 v 1.877 h -40.897 v -7.982 z M 36.241,66.555 h 25.795 v 18.979 h 10 V 66.555 h 25.796 v 103.063 43.845 103.063 H 72.036 V 99.853 h -10 V 316.527 H 36.241 V 278.532 104.55 Z m -19.404,172.26 v -94.55 L 26.241,132.7 v 117.681 z" /></g></g></svg>
