<?xml version="1.0" encoding="iso-8859-1"?>
<!-- Uploaded to: SVG Repo, www.svgrepo.com, Generator: SVG Repo Mixer Tools -->
<svg version="1.1" id="Layer_1" xmlns="http://www.w3.org/2000/svg" xmlns:xlink="http://www.w3.org/1999/xlink" 
	 viewBox="0 0 512 512" xml:space="preserve">
<circle style="fill:#A5D2F0;" cx="256" cy="256" r="256"/>
<path style="fill:#FFD782;" d="M508.13,300.138H3.87C24.796,420.477,129.676,512,256,512S487.204,420.477,508.13,300.138z"/>
<g>
	<path style="fill:#FFB864;" d="M185.379,335.448H88.276c-4.875,0-8.828-3.953-8.828-8.828l0,0c0-4.875,3.953-8.828,8.828-8.828
		h97.103c4.875,0,8.828,3.953,8.828,8.828l0,0C194.207,331.496,190.254,335.448,185.379,335.448z"/>
	<path style="fill:#FFB864;" d="M238.345,335.448H220.69c-4.875,0-8.828-3.953-8.828-8.828l0,0c0-4.875,3.953-8.828,8.828-8.828
		h17.655c4.875,0,8.828,3.953,8.828,8.828l0,0C247.172,331.496,243.22,335.448,238.345,335.448z"/>
	<path style="fill:#FFB864;" d="M300.138,370.759H185.379c-4.875,0-8.828-3.953-8.828-8.828l0,0c0-4.875,3.953-8.828,8.828-8.828
		h114.759c4.875,0,8.828,3.953,8.828,8.828l0,0C308.966,366.806,305.013,370.759,300.138,370.759z"/>
	<path style="fill:#FFB864;" d="M326.621,406.069h-35.31c-4.875,0-8.828-3.953-8.828-8.828l0,0c0-4.875,3.953-8.828,8.828-8.828
		h35.31c4.875,0,8.828,3.953,8.828,8.828l0,0C335.448,402.116,331.496,406.069,326.621,406.069z"/>
	<path style="fill:#FFB864;" d="M423.724,335.448h-97.103c-4.875,0-8.828-3.953-8.828-8.828l0,0c0-4.875,3.953-8.828,8.828-8.828
		h97.103c4.875,0,8.828,3.953,8.828,8.828l0,0C432.552,331.496,428.599,335.448,423.724,335.448z"/>
	<path style="fill:#FFB864;" d="M3.87,300.138h504.26c1.013-5.828,1.897-11.699,2.508-17.655H1.361
		C1.973,288.439,2.856,294.31,3.87,300.138z"/>
</g>
<g>
	<path style="fill:#FF5050;" d="M167.724,326.621h-8.828c-4.875,0-8.828-3.953-8.828-8.828V194.207c0-4.875,3.953-8.828,8.828-8.828
		h8.828c4.875,0,8.828,3.953,8.828,8.828v123.586C176.552,322.668,172.599,326.621,167.724,326.621z"/>
	<path style="fill:#FF5050;" d="M114.759,326.621h-8.828c-4.875,0-8.828-3.953-8.828-8.828V194.207c0-4.875,3.953-8.828,8.828-8.828
		h8.828c4.875,0,8.828,3.953,8.828,8.828v123.586C123.586,322.668,119.634,326.621,114.759,326.621z"/>
</g>
<path style="fill:#6E82A0;" d="M88.276,282.483L88.276,282.483c-4.875,0-8.828-3.953-8.828-8.828v-35.31
	c0-4.875,3.953-8.828,8.828-8.828l0,0c4.875,0,8.828,3.953,8.828,8.828v35.31C97.103,278.53,93.151,282.483,88.276,282.483z"/>
<path style="fill:#B43C3C;" d="M141.241,326.621h-8.828c-4.875,0-8.828-3.953-8.828-8.828V194.207c0-4.875,3.953-8.828,8.828-8.828
	h8.828c4.875,0,8.828,3.953,8.828,8.828v123.586C150.069,322.668,146.116,326.621,141.241,326.621z"/>
<path style="fill:#90AEC8;" d="M52.966,264.828h26.483v-17.655H52.966c-4.875,0-8.828,3.953-8.828,8.828l0,0
	C44.138,260.875,48.09,264.828,52.966,264.828z"/>
<g>
	<path style="fill:#FF5050;" d="M344.276,326.621h8.828c4.875,0,8.828-3.953,8.828-8.828V194.207c0-4.875-3.953-8.828-8.828-8.828
		h-8.828c-4.875,0-8.828,3.953-8.828,8.828v123.586C335.448,322.668,339.401,326.621,344.276,326.621z"/>
	<path style="fill:#FF5050;" d="M397.241,326.621h8.828c4.875,0,8.828-3.953,8.828-8.828V194.207c0-4.875-3.953-8.828-8.828-8.828
		h-8.828c-4.875,0-8.828,3.953-8.828,8.828v123.586C388.414,322.668,392.366,326.621,397.241,326.621z"/>
</g>
<path style="fill:#6E82A0;" d="M423.724,282.483L423.724,282.483c4.875,0,8.828-3.953,8.828-8.828v-35.31
	c0-4.875-3.953-8.828-8.828-8.828l0,0c-4.875,0-8.828,3.953-8.828,8.828v35.31C414.897,278.53,418.849,282.483,423.724,282.483z"/>
<path style="fill:#B43C3C;" d="M370.759,326.621h8.828c4.875,0,8.828-3.953,8.828-8.828V194.207c0-4.875-3.953-8.828-8.828-8.828
	h-8.828c-4.875,0-8.828,3.953-8.828,8.828v123.586C361.931,322.668,365.884,326.621,370.759,326.621z"/>
<g>
	<path style="fill:#90AEC8;" d="M459.034,264.828h-26.483v-17.655h26.483c4.875,0,8.828,3.953,8.828,8.828l0,0
		C467.862,260.875,463.91,264.828,459.034,264.828z"/>
	<rect x="176.552" y="247.172" style="fill:#90AEC8;" width="158.897" height="17.655"/>
</g>
<g>
	<path style="fill:#D94646;" d="M114.759,326.621h-8.828c-4.875,0-8.828-3.953-8.828-8.828v-44.138c0-4.875,3.953-8.828,8.828-8.828
		h8.828c4.875,0,8.828,3.953,8.828,8.828v44.138C123.586,322.668,119.634,326.621,114.759,326.621z"/>
	<path style="fill:#D94646;" d="M167.724,326.621h-8.828c-4.875,0-8.828-3.953-8.828-8.828v-44.138c0-4.875,3.953-8.828,8.828-8.828
		h8.828c4.875,0,8.828,3.953,8.828,8.828v44.138C176.552,322.668,172.599,326.621,167.724,326.621z"/>
</g>
<path style="fill:#9B3232;" d="M141.241,326.621h-8.828c-4.875,0-8.828-3.953-8.828-8.828v-44.138c0-4.875,3.953-8.828,8.828-8.828
	h8.828c4.875,0,8.828,3.953,8.828,8.828v44.138C150.069,322.668,146.116,326.621,141.241,326.621z"/>
<g>
	<path style="fill:#FF6E6E;" d="M114.759,229.517h-8.828c-4.875,0-8.828-3.953-8.828-8.828v-8.828c0-4.875,3.953-8.828,8.828-8.828
		h8.828c4.875,0,8.828,3.953,8.828,8.828v8.828C123.586,225.565,119.634,229.517,114.759,229.517z"/>
	<path style="fill:#FF6E6E;" d="M167.724,229.517h-8.828c-4.875,0-8.828-3.953-8.828-8.828v-8.828c0-4.875,3.953-8.828,8.828-8.828
		h8.828c4.875,0,8.828,3.953,8.828,8.828v8.828C176.552,225.565,172.599,229.517,167.724,229.517z"/>
</g>
<path style="fill:#C34B4B;" d="M141.241,229.517h-8.828c-4.875,0-8.828-3.953-8.828-8.828v-8.828c0-4.875,3.953-8.828,8.828-8.828
	h8.828c4.875,0,8.828,3.953,8.828,8.828v8.828C150.069,225.565,146.116,229.517,141.241,229.517z"/>
<g>
	<path style="fill:#FF6E6E;" d="M353.103,229.517h-8.828c-4.875,0-8.828-3.953-8.828-8.828v-8.828c0-4.875,3.953-8.828,8.828-8.828
		h8.828c4.875,0,8.828,3.953,8.828,8.828v8.828C361.931,225.565,357.978,229.517,353.103,229.517z"/>
	<path style="fill:#FF6E6E;" d="M406.069,229.517h-8.828c-4.875,0-8.828-3.953-8.828-8.828v-8.828c0-4.875,3.953-8.828,8.828-8.828
		h8.828c4.875,0,8.828,3.953,8.828,8.828v8.828C414.897,225.565,410.944,229.517,406.069,229.517z"/>
</g>
<path style="fill:#C34B4B;" d="M379.586,229.517h-8.828c-4.875,0-8.828-3.953-8.828-8.828v-8.828c0-4.875,3.953-8.828,8.828-8.828
	h8.828c4.875,0,8.828,3.953,8.828,8.828v8.828C388.414,225.565,384.461,229.517,379.586,229.517z"/>
<g>
	<path style="fill:#D94646;" d="M353.103,326.621h-8.828c-4.875,0-8.828-3.953-8.828-8.828v-44.138c0-4.875,3.953-8.828,8.828-8.828
		h8.828c4.875,0,8.828,3.953,8.828,8.828v44.138C361.931,322.668,357.978,326.621,353.103,326.621z"/>
	<path style="fill:#D94646;" d="M406.069,326.621h-8.828c-4.875,0-8.828-3.953-8.828-8.828v-44.138c0-4.875,3.953-8.828,8.828-8.828
		h8.828c4.875,0,8.828,3.953,8.828,8.828v44.138C414.897,322.668,410.944,326.621,406.069,326.621z"/>
</g>
<path style="fill:#9B3232;" d="M379.586,326.621h-8.828c-4.875,0-8.828-3.953-8.828-8.828v-44.138c0-4.875,3.953-8.828,8.828-8.828
	h8.828c4.875,0,8.828,3.953,8.828,8.828v44.138C388.414,322.668,384.461,326.621,379.586,326.621z"/>
</svg>