<!DOCTYPE svg PUBLIC "-//W3C//DTD SVG 1.1//EN" "http://www.w3.org/Graphics/SVG/1.1/DTD/svg11.dtd">
<!-- Uploaded to: SVG Repo, www.svgrepo.com, Transformed by: SVG Repo Mixer Tools -->
<svg width="64px" height="64px" viewBox="0 0 24 24" fill="none" xmlns="http://www.w3.org/2000/svg">
<g id="SVGRepo_bgCarrier" stroke-width="0"/>
<g id="SVGRepo_tracerCarrier" stroke-linecap="round" stroke-linejoin="round"/>
<g id="SVGRepo_iconCarrier"> <path d="M6 13C6.55 13 7 12.55 7 12C7 11.45 6.55 11 6 11C5.45 11 5 11.45 5 12C5 12.55 5.45 13 6 13Z" stroke="#000000" stroke-width="2"/> <path d="M12 13C12.55 13 13 12.55 13 12C13 11.45 12.55 11 12 11C11.45 11 11 11.45 11 12C11 12.55 11.45 13 12 13Z" stroke="#000000" stroke-width="2"/> <path d="M18 13C18.55 13 19 12.55 19 12C19 11.45 18.55 11 18 11C17.45 11 17 11.45 17 12C17 12.55 17.45 13 18 13Z" stroke="#000000" stroke-width="2"/> </g>
</svg>